<?xml version="1.0" encoding="utf-8"?>
<svg viewBox="0 0 500 500" xmlns="http://www.w3.org/2000/svg">
  <path fill-rule="evenodd" clip-rule="evenodd" d="M 146.513 292.94 L 181.368 172.197 L 320.813 172.197 L 355.676 292.94 L 146.513 292.94 Z" fill="#EED9C3" style=""/>
  <ellipse cx="295.81" cy="233.44" rx="9.851" ry="9.719" fill="#353535" style=""/>
  <path fill-rule="evenodd" clip-rule="evenodd" d="M 230.61 222.384 C 230.61 218.991 227.818 216.247 224.378 216.247 C 216.474 216.247 202.908 216.247 195.004 216.247 C 191.563 216.247 188.78 218.991 188.78 222.384 C 188.78 227.678 188.78 235.387 188.78 241.415 C 188.78 246.505 192.963 250.625 198.115 250.625 C 201.321 250.625 205.043 250.625 208.811 250.625 C 214.589 250.625 220.133 248.366 224.23 244.331 C 228.311 240.297 230.61 234.832 230.61 229.124 C 230.61 226.685 230.61 224.363 230.61 222.384 Z" fill="#A78347" style=""/>
  <path fill-rule="evenodd" clip-rule="evenodd" d="M 352.22 56.802 L 421.43 21.376 L 383.495 162.111 L 352.22 193.385 L 352.22 56.802 Z" fill="#E3B261" style=""/>
  <path fill-rule="evenodd" clip-rule="evenodd" d="M 147.771 56.802 L 78.569 21.376 L 116.505 162.111 L 147.779 193.385 L 147.771 56.802 Z" fill="#E3B261" style=""/>
  <path fill-rule="evenodd" clip-rule="evenodd" d="M 355.676 121.016 C 355.676 121.016 303.385 86.63 251.094 86.63 C 198.803 86.63 146.513 121.016 146.513 121.016 L 146.513 224.175 L 160.453 251.681 C 170.461 213.659 215.746 197.818 247.263 221.321 L 251.094 224.175 L 254.918 221.321 C 286.442 197.818 331.728 213.659 341.735 251.681 L 355.676 224.175 L 355.676 121.016 Z" fill="#E3B261" style=""/>
  <path fill-rule="evenodd" clip-rule="evenodd" d="M 216.231 275.746 L 188.342 437.357 L 149.882 409.851 L 181.368 292.94 L 216.231 275.746 Z" fill="#D4D4D4" style=""/>
  <path fill-rule="evenodd" clip-rule="evenodd" d="M 285.95 275.746 L 313.839 437.357 L 352.298 409.851 L 320.813 292.94 L 285.95 275.746 Z" fill="#D5D5D5" style=""/>
  <path fill-rule="evenodd" clip-rule="evenodd" d="M 146.505 224.175 L 118.616 327.326 L 153.479 396.098 L 181.368 292.94 L 146.505 224.175 Z" fill="#E6E6E6" style=""/>
  <path fill-rule="evenodd" clip-rule="evenodd" d="M 355.676 224.175 L 383.565 327.326 L 348.702 396.098 L 320.813 292.94 L 355.676 224.175 Z" fill="#E6E6E6" style=""/>
  <path fill-rule="evenodd" clip-rule="evenodd" d="M 216.231 275.746 L 184.855 444.237 L 251.094 478.624 L 317.326 444.237 L 285.95 275.746 L 253.69 259.836 L 251.094 258.553 L 216.231 275.746 Z" fill="#E6E6E6" style=""/>
  <path fill-rule="evenodd" clip-rule="evenodd" d="M 263.588 282.627 L 239.187 282.627 C 239.187 282.627 239.187 286.7 239.187 291.227 C 239.187 294.417 240.469 297.474 242.76 299.734 C 245.043 301.986 248.139 303.26 251.376 303.26 C 251.384 303.26 251.391 303.26 251.391 303.26 C 254.628 303.26 257.724 301.986 260.015 299.734 C 262.298 297.474 263.588 294.417 263.588 291.227 C 263.588 286.7 263.588 282.627 263.588 282.627 Z" fill="#353535" style=""/>
</svg>